<svg width="100%" height="100%" viewBox="0 0 150 28" fill="none" xmlns="http://www.w3.org/2000/svg">
  <path fillRule="evenodd" clipRule="evenodd" d="M75 14C72.653 12.798 69.521 12.394 67.682 12.257C70.185 12.072 75.085 11.391 77.136 8.876C80.346 6.472 80.193 -1.660 80.193 -1.660C80.193 -1.660 72.490 -2.519 69.127 1.718C67.037 3.799 66.389 7.414 66.200 9.932C66.012 7.417 65.364 3.799 63.274 1.718C59.911 -2.520 52.209 -1.660 52.209 -1.660C52.209 -1.660 51.115 3.511 52.555 6.830C53.314 8.465 54.701 9.797 56.303 10.618C58.650 11.820 61.782 12.224 63.621 12.361C61.782 12.498 58.650 12.902 56.303 14.104C54.701 14.925 53.314 16.257 52.555 17.892C51.115 21.208 52.209 26.280 52.209 26.280C52.209 26.280 59.911 27.131 63.274 23.294C65.364 21.212 66.012 17.594 66.200 15.079C66.389 17.594 67.037 21.212 69.127 23.294C72.490 27.131 80.193 26.280 80.193 26.280C80.193 26.280 80.291 21.208 78.748 17.889C77.990 16.254 76.603 14.922 75 14ZM75.256 21.854C75.217 21.845 71.197 20.698 66.037 13.803C64.523 14.985 60.721 18.112 57.101 22.382L56.938 22.574L57.003 22.330C57.013 22.288 58.192 18.145 65.370 12.868C64.677 11.839 63.046 9.471 56.750 3.891L56.610 3.767L56.796 3.793C56.929 3.813 60.165 4.321 66.077 11.943C66.077 11.943 66.152 12.047 66.289 12.23C67.123 11.653 69.535 9.940 74.949 3.81021L75.072 3.67015L75.046 3.85581C75.026 3.98935 74.518 7.2107 66.949 13.1029C68.378 14.9074 71.334 18.3926 75.299 21.754L75.494 21.9201L75.250 21.854H75.256Z" fill="url(#paint0_linear_4184_3909)"></path>
  <defs>
    <linearGradient id="paint0_linear_4184_3909" x1="0.0401913" y1="0.0417074" x2="27.9607" y2="27.9439" gradientUnits="userSpaceOnUse">
      <stop stopColor="#5EDD4D"></stop>
      <stop offset="1" stopColor="#05CE6C"></stop>
    </linearGradient>
  </defs>
</svg>